<?xml version="1.0" encoding="utf-8" standalone="no"?>
<!DOCTYPE svg PUBLIC "-//W3C//DTD SVG 1.1//EN"
  "http://www.w3.org/Graphics/SVG/1.1/DTD/svg11.dtd">
<!-- Created with matplotlib (https://matplotlib.org/) -->
<svg height="288pt" version="1.1" viewBox="0 0 432 288" width="432pt" xmlns="http://www.w3.org/2000/svg" xmlns:xlink="http://www.w3.org/1999/xlink">
 <defs>
  <style type="text/css">
*{stroke-linecap:butt;stroke-linejoin:round;}
  </style>
 </defs>
 <g id="figure_1">
  <g id="patch_1">
   <path d="M 0 288 
L 432 288 
L 432 0 
L 0 0 
z
" style="fill:#ffffff;"/>
  </g>
  <g id="axes_1">
   <g id="patch_2">
    <path clip-path="url(#pd5287a4609)" d="M 69.218182 252 
L 99.654545 252 
L 99.654545 184.226494 
L 69.218182 184.226494 
z
" style="fill:#0000ff;"/>
   </g>
   <g id="patch_3">
    <path clip-path="url(#pd5287a4609)" d="M 99.654545 252 
L 130.090909 252 
L 130.090909 212.465455 
L 99.654545 212.465455 
z
" style="fill:#0000ff;"/>
   </g>
   <g id="patch_4">
    <path clip-path="url(#pd5287a4609)" d="M 130.090909 252 
L 160.527273 252 
L 160.527273 229.408831 
L 130.090909 229.408831 
z
" style="fill:#0000ff;"/>
   </g>
   <g id="patch_5">
    <path clip-path="url(#pd5287a4609)" d="M 160.527273 252 
L 190.963636 252 
L 190.963636 246.352208 
L 160.527273 246.352208 
z
" style="fill:#0000ff;"/>
   </g>
   <g id="patch_6">
    <path clip-path="url(#pd5287a4609)" d="M 190.963636 252 
L 221.4 252 
L 221.4 144.691948 
L 190.963636 144.691948 
z
" style="fill:#0000ff;"/>
   </g>
   <g id="patch_7">
    <path clip-path="url(#pd5287a4609)" d="M 221.4 252 
L 251.836364 252 
L 251.836364 172.930909 
L 221.4 172.930909 
z
" style="fill:#0000ff;"/>
   </g>
   <g id="patch_8">
    <path clip-path="url(#pd5287a4609)" d="M 251.836364 252 
L 282.272727 252 
L 282.272727 201.16987 
L 251.836364 201.16987 
z
" style="fill:#0000ff;"/>
   </g>
   <g id="patch_9">
    <path clip-path="url(#pd5287a4609)" d="M 282.272727 252 
L 312.709091 252 
L 312.709091 218.113247 
L 282.272727 218.113247 
z
" style="fill:#0000ff;"/>
   </g>
   <g id="patch_10">
    <path clip-path="url(#pd5287a4609)" d="M 312.709091 252 
L 343.145455 252 
L 343.145455 235.056623 
L 312.709091 235.056623 
z
" style="fill:#0000ff;"/>
   </g>
   <g id="patch_11">
    <path clip-path="url(#pd5287a4609)" d="M 343.145455 252 
L 373.581818 252 
L 373.581818 240.704416 
L 343.145455 240.704416 
z
" style="fill:#0000ff;"/>
   </g>
  </g>
 </g>
 <defs>
  <clipPath id="pd5287a4609">
   <rect height="217.44" width="334.8" x="54" y="34.56"/>
  </clipPath>
 </defs>
</svg>
